<?xml version="1.0" encoding="UTF-8" standalone="no"?>
<!DOCTYPE svg PUBLIC "-//W3C//DTD SVG 1.1//EN" "http://www.w3.org/Graphics/SVG/1.1/DTD/svg11.dtd">
<svg width="100%" height="100%" viewBox="0 0 408 136" version="1.1" xmlns="http://www.w3.org/2000/svg" xmlns:xlink="http://www.w3.org/1999/xlink" xml:space="preserve" xmlns:serif="http://www.serif.com/" style="fill-rule:evenodd;clip-rule:evenodd;stroke-linejoin:round;stroke-miterlimit:2;">
    <g id="Artboard1" transform="matrix(0.724432,0,0,0.621174,482.372,166.541)">
        <rect x="-665.862" y="-268.107" width="562.944" height="218.531" style="fill:none;"/>
        <g transform="matrix(1.38039,0,0,1.60985,199.05,69.9341)">
            <g transform="matrix(0.819345,0,0,0.819345,-416.666,-243.883)">
                <g transform="matrix(54.1976,0,0,54.1976,38.1999,77.2098)">
                    <path d="M0.022,-0L0.022,-0.01L0.043,-0.017C0.056,-0.022 0.065,-0.028 0.069,-0.036C0.073,-0.043 0.075,-0.054 0.075,-0.068L0.075,-0.591C0.075,-0.604 0.073,-0.615 0.07,-0.623C0.066,-0.63 0.058,-0.636 0.045,-0.641L0.022,-0.65L0.022,-0.66L0.308,-0.66C0.387,-0.66 0.447,-0.645 0.489,-0.616C0.531,-0.586 0.552,-0.545 0.552,-0.492C0.552,-0.463 0.541,-0.433 0.519,-0.404C0.497,-0.375 0.462,-0.352 0.415,-0.336L0.554,-0.06C0.56,-0.049 0.567,-0.04 0.575,-0.033C0.582,-0.025 0.592,-0.019 0.605,-0.014L0.618,-0.009L0.618,-0L0.439,-0L0.291,-0.315L0.223,-0.315L0.223,-0.068C0.223,-0.055 0.225,-0.045 0.229,-0.037C0.233,-0.029 0.241,-0.023 0.254,-0.019L0.278,-0.01L0.278,-0L0.022,-0ZM0.223,-0.335L0.271,-0.335C0.319,-0.335 0.354,-0.348 0.375,-0.374C0.396,-0.399 0.407,-0.437 0.407,-0.488C0.407,-0.539 0.397,-0.578 0.377,-0.603C0.357,-0.628 0.323,-0.64 0.276,-0.64L0.223,-0.64L0.223,-0.335Z" style="fill:white;fill-rule:nonzero;"/>
                </g>
                <g transform="matrix(54.1976,0,0,54.1976,71.3688,77.2098)">
                    <path d="M0.271,-0.496C0.314,-0.496 0.351,-0.487 0.382,-0.47C0.413,-0.452 0.436,-0.428 0.453,-0.398C0.469,-0.367 0.477,-0.333 0.477,-0.294C0.477,-0.287 0.477,-0.279 0.476,-0.272C0.475,-0.264 0.474,-0.257 0.472,-0.251L0.174,-0.251C0.175,-0.179 0.188,-0.127 0.213,-0.096C0.238,-0.064 0.275,-0.048 0.324,-0.048C0.357,-0.048 0.384,-0.053 0.405,-0.064C0.426,-0.075 0.445,-0.09 0.463,-0.111L0.473,-0.102C0.452,-0.065 0.425,-0.037 0.391,-0.016C0.356,0.005 0.315,0.015 0.267,0.015C0.22,0.015 0.178,0.005 0.141,-0.016C0.104,-0.036 0.076,-0.065 0.055,-0.103C0.034,-0.141 0.024,-0.186 0.024,-0.239C0.024,-0.294 0.036,-0.34 0.06,-0.379C0.084,-0.417 0.115,-0.446 0.153,-0.466C0.19,-0.486 0.23,-0.496 0.271,-0.496ZM0.268,-0.476C0.249,-0.476 0.232,-0.47 0.219,-0.459C0.205,-0.447 0.194,-0.426 0.187,-0.397C0.179,-0.367 0.175,-0.325 0.174,-0.271L0.345,-0.271C0.352,-0.344 0.349,-0.396 0.337,-0.428C0.325,-0.46 0.302,-0.476 0.268,-0.476Z" style="fill:white;fill-rule:nonzero;"/>
                </g>
                <g transform="matrix(54.1976,0,0,54.1976,98.847,77.2098)">
                    <path d="M0.268,0.015C0.223,0.015 0.182,0.005 0.145,-0.015C0.108,-0.034 0.078,-0.063 0.057,-0.101C0.035,-0.138 0.024,-0.184 0.024,-0.239C0.024,-0.293 0.036,-0.339 0.06,-0.378C0.083,-0.416 0.115,-0.445 0.155,-0.466C0.194,-0.486 0.238,-0.496 0.285,-0.496C0.324,-0.496 0.356,-0.49 0.383,-0.477C0.41,-0.464 0.43,-0.448 0.444,-0.428C0.458,-0.407 0.465,-0.386 0.465,-0.364C0.465,-0.345 0.459,-0.331 0.448,-0.321C0.437,-0.31 0.422,-0.305 0.404,-0.305C0.385,-0.305 0.369,-0.312 0.357,-0.326C0.345,-0.34 0.338,-0.358 0.336,-0.381C0.335,-0.396 0.336,-0.408 0.337,-0.419C0.338,-0.429 0.338,-0.439 0.337,-0.45C0.334,-0.461 0.33,-0.469 0.325,-0.473C0.319,-0.476 0.311,-0.478 0.301,-0.478C0.26,-0.478 0.229,-0.46 0.207,-0.425C0.184,-0.39 0.173,-0.333 0.173,-0.256C0.173,-0.189 0.186,-0.137 0.211,-0.102C0.236,-0.066 0.274,-0.048 0.326,-0.048C0.357,-0.048 0.383,-0.054 0.402,-0.065C0.421,-0.076 0.44,-0.093 0.458,-0.116L0.468,-0.108C0.451,-0.069 0.426,-0.038 0.391,-0.017C0.356,0.004 0.315,0.015 0.268,0.015Z" style="fill:white;fill-rule:nonzero;"/>
                </g>
                <g transform="matrix(54.1976,0,0,54.1976,125.295,77.2098)">
                    <path d="M0.271,-0.496C0.314,-0.496 0.351,-0.487 0.382,-0.47C0.413,-0.452 0.436,-0.428 0.453,-0.398C0.469,-0.367 0.477,-0.333 0.477,-0.294C0.477,-0.287 0.477,-0.279 0.476,-0.272C0.475,-0.264 0.474,-0.257 0.472,-0.251L0.174,-0.251C0.175,-0.179 0.188,-0.127 0.213,-0.096C0.238,-0.064 0.275,-0.048 0.324,-0.048C0.357,-0.048 0.384,-0.053 0.405,-0.064C0.426,-0.075 0.445,-0.09 0.463,-0.111L0.473,-0.102C0.452,-0.065 0.425,-0.037 0.391,-0.016C0.356,0.005 0.315,0.015 0.267,0.015C0.22,0.015 0.178,0.005 0.141,-0.016C0.104,-0.036 0.076,-0.065 0.055,-0.103C0.034,-0.141 0.024,-0.186 0.024,-0.239C0.024,-0.294 0.036,-0.34 0.06,-0.379C0.084,-0.417 0.115,-0.446 0.153,-0.466C0.19,-0.486 0.23,-0.496 0.271,-0.496ZM0.268,-0.476C0.249,-0.476 0.232,-0.47 0.219,-0.459C0.205,-0.447 0.194,-0.426 0.187,-0.397C0.179,-0.367 0.175,-0.325 0.174,-0.271L0.345,-0.271C0.352,-0.344 0.349,-0.396 0.337,-0.428C0.325,-0.46 0.302,-0.476 0.268,-0.476Z" style="fill:white;fill-rule:nonzero;"/>
                </g>
                <g transform="matrix(54.1976,0,0,54.1976,152.774,77.2098)">
                    <path d="M0.21,0.015C0.167,0.015 0.134,0.004 0.111,-0.017C0.087,-0.038 0.075,-0.072 0.075,-0.119L0.075,-0.461L0.006,-0.461L0.006,-0.471L0.03,-0.475C0.051,-0.48 0.069,-0.486 0.084,-0.495C0.098,-0.504 0.113,-0.515 0.128,-0.53L0.21,-0.621L0.22,-0.621L0.217,-0.481L0.329,-0.481L0.329,-0.461L0.216,-0.461L0.216,-0.101C0.216,-0.078 0.221,-0.06 0.232,-0.048C0.242,-0.036 0.255,-0.03 0.271,-0.03C0.285,-0.03 0.297,-0.034 0.308,-0.041C0.319,-0.048 0.329,-0.057 0.34,-0.069L0.35,-0.059C0.337,-0.036 0.318,-0.018 0.295,-0.005C0.272,0.008 0.243,0.015 0.21,0.015Z" style="fill:white;fill-rule:nonzero;"/>
                </g>
                <g transform="matrix(54.1976,0,0,54.1976,172.285,77.2098)">
                    <path d="M0.21,0.015C0.167,0.015 0.134,0.004 0.111,-0.017C0.087,-0.038 0.075,-0.072 0.075,-0.119L0.075,-0.461L0.006,-0.461L0.006,-0.471L0.03,-0.475C0.051,-0.48 0.069,-0.486 0.084,-0.495C0.098,-0.504 0.113,-0.515 0.128,-0.53L0.21,-0.621L0.22,-0.621L0.217,-0.481L0.329,-0.481L0.329,-0.461L0.216,-0.461L0.216,-0.101C0.216,-0.078 0.221,-0.06 0.232,-0.048C0.242,-0.036 0.255,-0.03 0.271,-0.03C0.285,-0.03 0.297,-0.034 0.308,-0.041C0.319,-0.048 0.329,-0.057 0.34,-0.069L0.35,-0.059C0.337,-0.036 0.318,-0.018 0.295,-0.005C0.272,0.008 0.243,0.015 0.21,0.015Z" style="fill:white;fill-rule:nonzero;"/>
                </g>
                <g transform="matrix(54.1976,0,0,54.1976,191.688,77.2098)">
                    <path d="M0.271,-0.496C0.314,-0.496 0.351,-0.487 0.382,-0.47C0.413,-0.452 0.436,-0.428 0.453,-0.398C0.469,-0.367 0.477,-0.333 0.477,-0.294C0.477,-0.287 0.477,-0.279 0.476,-0.272C0.475,-0.264 0.474,-0.257 0.472,-0.251L0.174,-0.251C0.175,-0.179 0.188,-0.127 0.213,-0.096C0.238,-0.064 0.275,-0.048 0.324,-0.048C0.357,-0.048 0.384,-0.053 0.405,-0.064C0.426,-0.075 0.445,-0.09 0.463,-0.111L0.473,-0.102C0.452,-0.065 0.425,-0.037 0.391,-0.016C0.356,0.005 0.315,0.015 0.267,0.015C0.22,0.015 0.178,0.005 0.141,-0.016C0.104,-0.036 0.076,-0.065 0.055,-0.103C0.034,-0.141 0.024,-0.186 0.024,-0.239C0.024,-0.294 0.036,-0.34 0.06,-0.379C0.084,-0.417 0.115,-0.446 0.153,-0.466C0.19,-0.486 0.23,-0.496 0.271,-0.496ZM0.268,-0.476C0.249,-0.476 0.232,-0.47 0.219,-0.459C0.205,-0.447 0.194,-0.426 0.187,-0.397C0.179,-0.367 0.175,-0.325 0.174,-0.271L0.345,-0.271C0.352,-0.344 0.349,-0.396 0.337,-0.428C0.325,-0.46 0.302,-0.476 0.268,-0.476Z" style="fill:white;fill-rule:nonzero;"/>
                </g>
                <g transform="matrix(54.1976,0,0,54.1976,219.166,77.2098)">
                    <path d="M0.193,0.015C0.16,0.015 0.131,0.011 0.105,0.004C0.079,-0.004 0.055,-0.014 0.033,-0.025L0.034,-0.144L0.044,-0.144L0.078,-0.084C0.093,-0.057 0.109,-0.038 0.127,-0.025C0.144,-0.012 0.167,-0.005 0.194,-0.005C0.226,-0.005 0.252,-0.012 0.272,-0.027C0.291,-0.041 0.301,-0.06 0.301,-0.084C0.301,-0.106 0.294,-0.124 0.28,-0.138C0.266,-0.152 0.24,-0.165 0.202,-0.176L0.16,-0.189C0.119,-0.201 0.087,-0.22 0.064,-0.245C0.041,-0.27 0.029,-0.301 0.029,-0.338C0.029,-0.382 0.046,-0.419 0.081,-0.45C0.116,-0.481 0.165,-0.496 0.23,-0.496C0.256,-0.496 0.281,-0.493 0.304,-0.488C0.327,-0.482 0.349,-0.473 0.37,-0.462L0.364,-0.354L0.354,-0.354L0.319,-0.416C0.306,-0.438 0.294,-0.454 0.282,-0.463C0.269,-0.472 0.251,-0.476 0.226,-0.476C0.203,-0.476 0.182,-0.47 0.162,-0.457C0.142,-0.444 0.132,-0.426 0.132,-0.403C0.132,-0.38 0.14,-0.362 0.158,-0.349C0.174,-0.336 0.2,-0.323 0.233,-0.312L0.278,-0.299C0.326,-0.284 0.36,-0.264 0.381,-0.239C0.402,-0.213 0.412,-0.182 0.412,-0.146C0.412,-0.097 0.393,-0.058 0.355,-0.029C0.316,0 0.262,0.015 0.193,0.015Z" style="fill:white;fill-rule:nonzero;"/>
                </g>
            </g>
            <g transform="matrix(1.94517,0,0,1.94517,-700.353,-248.755)">
                <g transform="matrix(54.1976,0,0,54.1976,38.1999,77.2098)">
                    <path d="M0.284,0.003L0.07,-0.593C0.065,-0.606 0.059,-0.617 0.052,-0.625C0.044,-0.632 0.033,-0.638 0.02,-0.642L-0.004,-0.65L-0.004,-0.66L0.284,-0.66L0.284,-0.65L0.253,-0.641C0.238,-0.637 0.229,-0.63 0.228,-0.62C0.226,-0.61 0.227,-0.598 0.232,-0.583L0.38,-0.144L0.529,-0.584C0.534,-0.599 0.537,-0.612 0.537,-0.622C0.536,-0.632 0.528,-0.639 0.513,-0.643L0.487,-0.65L0.487,-0.66L0.627,-0.66L0.627,-0.65L0.6,-0.642C0.587,-0.639 0.578,-0.633 0.573,-0.625C0.568,-0.616 0.563,-0.605 0.558,-0.592L0.358,0.003L0.284,0.003Z" style="fill:white;fill-rule:nonzero;"/>
                </g>
                <g transform="matrix(54.1976,0,0,54.1976,67.575,77.2098)">
                    <path d="M0.271,-0.496C0.314,-0.496 0.351,-0.487 0.382,-0.47C0.413,-0.452 0.436,-0.428 0.453,-0.398C0.469,-0.367 0.477,-0.333 0.477,-0.294C0.477,-0.287 0.477,-0.279 0.476,-0.272C0.475,-0.264 0.474,-0.257 0.472,-0.251L0.174,-0.251C0.175,-0.179 0.188,-0.127 0.213,-0.096C0.238,-0.064 0.275,-0.048 0.324,-0.048C0.357,-0.048 0.384,-0.053 0.405,-0.064C0.426,-0.075 0.445,-0.09 0.463,-0.111L0.473,-0.102C0.452,-0.065 0.425,-0.037 0.391,-0.016C0.356,0.005 0.315,0.015 0.267,0.015C0.22,0.015 0.178,0.005 0.141,-0.016C0.104,-0.036 0.076,-0.065 0.055,-0.103C0.034,-0.141 0.024,-0.186 0.024,-0.239C0.024,-0.294 0.036,-0.34 0.06,-0.379C0.084,-0.417 0.115,-0.446 0.153,-0.466C0.19,-0.486 0.23,-0.496 0.271,-0.496ZM0.268,-0.476C0.249,-0.476 0.232,-0.47 0.219,-0.459C0.205,-0.447 0.194,-0.426 0.187,-0.397C0.179,-0.367 0.175,-0.325 0.174,-0.271L0.345,-0.271C0.352,-0.344 0.349,-0.396 0.337,-0.428C0.325,-0.46 0.302,-0.476 0.268,-0.476Z" style="fill:white;fill-rule:nonzero;"/>
                </g>
                <g transform="matrix(54.1976,0,0,54.1976,95.0532,77.2098)">
                    <path d="M0.238,-0.173C0.192,-0.173 0.153,-0.181 0.121,-0.196L0.121,-0.162C0.121,-0.141 0.131,-0.129 0.152,-0.125L0.34,-0.09C0.371,-0.084 0.4,-0.076 0.425,-0.067C0.45,-0.057 0.471,-0.043 0.486,-0.026C0.501,-0.008 0.509,0.016 0.509,0.047C0.509,0.08 0.498,0.11 0.477,0.138C0.456,0.165 0.424,0.188 0.383,0.205C0.341,0.222 0.289,0.23 0.227,0.23C0.174,0.23 0.131,0.225 0.1,0.214C0.069,0.203 0.047,0.188 0.034,0.171C0.021,0.154 0.014,0.135 0.014,0.116C0.014,0.092 0.022,0.068 0.039,0.044C0.055,0.019 0.075,-0 0.099,-0.015C0.078,-0.023 0.063,-0.033 0.054,-0.046C0.045,-0.059 0.04,-0.072 0.04,-0.087C0.04,-0.1 0.044,-0.113 0.051,-0.125C0.057,-0.136 0.066,-0.148 0.076,-0.16L0.109,-0.202C0.06,-0.23 0.036,-0.274 0.036,-0.334C0.036,-0.382 0.053,-0.421 0.088,-0.451C0.122,-0.481 0.172,-0.496 0.239,-0.496C0.273,-0.496 0.303,-0.492 0.329,-0.484C0.354,-0.476 0.375,-0.465 0.392,-0.45C0.413,-0.453 0.434,-0.459 0.453,-0.467C0.471,-0.474 0.489,-0.485 0.504,-0.498L0.518,-0.488L0.518,-0.437L0.405,-0.437C0.429,-0.41 0.441,-0.376 0.441,-0.334C0.441,-0.287 0.424,-0.249 0.39,-0.219C0.355,-0.188 0.305,-0.173 0.238,-0.173ZM0.237,-0.193C0.264,-0.193 0.283,-0.204 0.296,-0.226C0.308,-0.248 0.314,-0.285 0.314,-0.336C0.314,-0.387 0.308,-0.424 0.296,-0.445C0.283,-0.466 0.264,-0.476 0.239,-0.476C0.214,-0.476 0.196,-0.465 0.183,-0.444C0.17,-0.422 0.164,-0.385 0.164,-0.334C0.164,-0.283 0.17,-0.246 0.182,-0.225C0.193,-0.204 0.212,-0.193 0.237,-0.193ZM0.088,0.084C0.088,0.123 0.1,0.153 0.125,0.173C0.149,0.193 0.187,0.203 0.24,0.203C0.295,0.203 0.337,0.194 0.365,0.176C0.393,0.158 0.407,0.133 0.407,0.1C0.407,0.081 0.4,0.066 0.387,0.055C0.373,0.044 0.35,0.035 0.317,0.029L0.136,-0.005C0.131,-0.006 0.125,-0.008 0.12,-0.009C0.111,0.004 0.103,0.02 0.097,0.037C0.091,0.054 0.088,0.069 0.088,0.084Z" style="fill:white;fill-rule:nonzero;"/>
                </g>
                <g transform="matrix(54.1976,0,0,54.1976,123.832,77.2098)">
                    <path d="M0.008,-0L0.008,-0.01L0.033,-0.019C0.046,-0.024 0.057,-0.031 0.064,-0.039C0.071,-0.046 0.077,-0.057 0.082,-0.071L0.288,-0.662L0.373,-0.662L0.576,-0.067C0.581,-0.052 0.587,-0.041 0.594,-0.034C0.601,-0.026 0.611,-0.019 0.625,-0.014L0.637,-0.01L0.637,-0L0.383,-0L0.383,-0.01L0.398,-0.015C0.412,-0.02 0.42,-0.028 0.424,-0.038C0.427,-0.047 0.426,-0.059 0.422,-0.072L0.375,-0.216L0.153,-0.216L0.105,-0.075C0.1,-0.06 0.099,-0.049 0.101,-0.04C0.102,-0.031 0.11,-0.024 0.124,-0.019L0.146,-0.01L0.146,-0L0.008,-0ZM0.16,-0.236L0.369,-0.236L0.268,-0.547L0.16,-0.236Z" style="fill:white;fill-rule:nonzero;"/>
                </g>
                <g transform="matrix(54.1976,0,0,54.1976,159.061,77.2098)">
                    <path d="M0.02,-0L0.02,-0.01L0.034,-0.014C0.057,-0.021 0.069,-0.037 0.069,-0.063L0.069,-0.376C0.069,-0.391 0.067,-0.402 0.062,-0.409C0.057,-0.416 0.048,-0.42 0.035,-0.423L0.02,-0.427L0.02,-0.437L0.191,-0.495L0.201,-0.485L0.209,-0.425C0.232,-0.446 0.259,-0.463 0.288,-0.476C0.317,-0.489 0.346,-0.496 0.375,-0.496C0.419,-0.496 0.453,-0.484 0.477,-0.46C0.5,-0.436 0.512,-0.399 0.512,-0.35L0.512,-0.062C0.512,-0.036 0.525,-0.02 0.55,-0.013L0.559,-0.01L0.559,-0L0.323,-0L0.323,-0.01L0.336,-0.014C0.359,-0.021 0.371,-0.038 0.371,-0.063L0.371,-0.382C0.371,-0.425 0.35,-0.446 0.307,-0.446C0.278,-0.446 0.246,-0.431 0.211,-0.402L0.211,-0.062C0.211,-0.036 0.223,-0.02 0.246,-0.013L0.255,-0.01L0.255,-0L0.02,-0Z" style="fill:white;fill-rule:nonzero;"/>
                </g>
                <g transform="matrix(54.1976,0,0,54.1976,190.387,77.2098)">
                    <path d="M0.02,-0L0.02,-0.01L0.034,-0.014C0.057,-0.021 0.069,-0.037 0.069,-0.063L0.069,-0.376C0.069,-0.391 0.067,-0.402 0.062,-0.409C0.057,-0.416 0.048,-0.42 0.035,-0.423L0.02,-0.427L0.02,-0.437L0.191,-0.495L0.201,-0.485L0.209,-0.425C0.232,-0.446 0.259,-0.463 0.288,-0.476C0.317,-0.489 0.346,-0.496 0.375,-0.496C0.419,-0.496 0.453,-0.484 0.477,-0.46C0.5,-0.436 0.512,-0.399 0.512,-0.35L0.512,-0.062C0.512,-0.036 0.525,-0.02 0.55,-0.013L0.559,-0.01L0.559,-0L0.323,-0L0.323,-0.01L0.336,-0.014C0.359,-0.021 0.371,-0.038 0.371,-0.063L0.371,-0.382C0.371,-0.425 0.35,-0.446 0.307,-0.446C0.278,-0.446 0.246,-0.431 0.211,-0.402L0.211,-0.062C0.211,-0.036 0.223,-0.02 0.246,-0.013L0.255,-0.01L0.255,-0L0.02,-0Z" style="fill:white;fill-rule:nonzero;"/>
                </g>
                <g transform="matrix(54.1976,0,0,54.1976,221.713,77.2098)">
                    <path d="M0.271,-0.496C0.314,-0.496 0.351,-0.487 0.382,-0.47C0.413,-0.452 0.436,-0.428 0.453,-0.398C0.469,-0.367 0.477,-0.333 0.477,-0.294C0.477,-0.287 0.477,-0.279 0.476,-0.272C0.475,-0.264 0.474,-0.257 0.472,-0.251L0.174,-0.251C0.175,-0.179 0.188,-0.127 0.213,-0.096C0.238,-0.064 0.275,-0.048 0.324,-0.048C0.357,-0.048 0.384,-0.053 0.405,-0.064C0.426,-0.075 0.445,-0.09 0.463,-0.111L0.473,-0.102C0.452,-0.065 0.425,-0.037 0.391,-0.016C0.356,0.005 0.315,0.015 0.267,0.015C0.22,0.015 0.178,0.005 0.141,-0.016C0.104,-0.036 0.076,-0.065 0.055,-0.103C0.034,-0.141 0.024,-0.186 0.024,-0.239C0.024,-0.294 0.036,-0.34 0.06,-0.379C0.084,-0.417 0.115,-0.446 0.153,-0.466C0.19,-0.486 0.23,-0.496 0.271,-0.496ZM0.268,-0.476C0.249,-0.476 0.232,-0.47 0.219,-0.459C0.205,-0.447 0.194,-0.426 0.187,-0.397C0.179,-0.367 0.175,-0.325 0.174,-0.271L0.345,-0.271C0.352,-0.344 0.349,-0.396 0.337,-0.428C0.325,-0.46 0.302,-0.476 0.268,-0.476Z" style="fill:white;fill-rule:nonzero;"/>
                </g>
            </g>
            <g transform="matrix(0.0318902,0,0,0.0329155,-546.103,-179.956)">
                <path d="M600.22,0C600.22,0 534.4,63.859 463.214,89.605C-63.937,280.277 158.385,651.845 165.638,653.07C165.638,653.07 195.198,601.593 235.129,572.231C488.516,385.955 540.016,171.541 540.016,171.541C540.016,171.541 483.156,429.549 257.731,590.089C207.942,625.528 174.23,712.786 159.959,800C159.959,800 195.252,785.741 210.428,781.879C216.346,743.259 228.719,706.279 249.638,673.244C564.697,710.755 667.885,456.885 681.365,368.363C713.181,159.292 600.22,0 600.22,0Z" style="fill:white;fill-rule:nonzero;"/>
            </g>
        </g>
    </g>
</svg>
