<?xml version="1.0" encoding="UTF-8" standalone="no"?>
<!DOCTYPE svg PUBLIC "-//W3C//DTD SVG 1.1//EN" "http://www.w3.org/Graphics/SVG/1.1/DTD/svg11.dtd">
<svg width="100%" height="100%" viewBox="0 0 1089 351" version="1.1" xmlns="http://www.w3.org/2000/svg" xmlns:xlink="http://www.w3.org/1999/xlink" xml:space="preserve" xmlns:serif="http://www.serif.com/" style="fill-rule:evenodd;clip-rule:evenodd;stroke-linejoin:round;stroke-miterlimit:2;">
    <g transform="matrix(1,0,0,1,0,-133)">
        <g id="Artboard1" transform="matrix(1,0,0,1,-837.995,-1935.56)">
            <rect x="837.995" y="2068.56" width="1088.19" height="350.525" style="fill:none;"/>
            <clipPath id="_clip1">
                <rect x="837.995" y="2068.56" width="1088.19" height="350.525"/>
            </clipPath>
            <g clip-path="url(#_clip1)">
                <g transform="matrix(1,0,0,1,417.278,1554.28)">
                    <g transform="matrix(252.364,0,0,252.364,410.356,794.193)">
                        <path d="M0.3,-0.05C0.282,-0.05 0.266,-0.057 0.253,-0.073C0.24,-0.088 0.229,-0.105 0.22,-0.126C0.211,-0.146 0.204,-0.163 0.199,-0.178C0.187,-0.213 0.175,-0.252 0.162,-0.294C0.149,-0.335 0.137,-0.377 0.124,-0.42C0.111,-0.463 0.097,-0.503 0.084,-0.542C0.071,-0.58 0.058,-0.613 0.045,-0.64L0.045,-0.651C0.045,-0.662 0.047,-0.669 0.052,-0.673C0.057,-0.676 0.067,-0.678 0.082,-0.678C0.099,-0.678 0.112,-0.675 0.121,-0.67C0.129,-0.665 0.136,-0.653 0.142,-0.634L0.206,-0.429C0.225,-0.369 0.24,-0.322 0.251,-0.287C0.262,-0.252 0.272,-0.227 0.279,-0.21C0.286,-0.193 0.294,-0.183 0.301,-0.178C0.308,-0.173 0.316,-0.171 0.325,-0.171C0.337,-0.171 0.352,-0.183 0.37,-0.208C0.388,-0.232 0.407,-0.266 0.427,-0.31C0.447,-0.354 0.467,-0.406 0.487,-0.466C0.506,-0.525 0.524,-0.59 0.539,-0.66C0.541,-0.669 0.546,-0.677 0.554,-0.684C0.561,-0.691 0.569,-0.694 0.578,-0.694C0.588,-0.694 0.595,-0.69 0.599,-0.683C0.602,-0.676 0.604,-0.667 0.604,-0.657L0.604,-0.63C0.604,-0.609 0.599,-0.58 0.59,-0.546C0.581,-0.51 0.568,-0.472 0.552,-0.429C0.535,-0.386 0.517,-0.343 0.496,-0.298C0.475,-0.253 0.454,-0.211 0.431,-0.171C0.422,-0.155 0.411,-0.138 0.399,-0.119C0.386,-0.1 0.372,-0.084 0.356,-0.071C0.34,-0.057 0.321,-0.05 0.3,-0.05Z" style="fill:rgb(21,21,21);fill-rule:nonzero;"/>
                    </g>
                    <g transform="matrix(252.364,0,0,252.364,575.149,794.193)">
                        <path d="M0.321,0.015C0.27,0.015 0.225,0.008 0.184,-0.008C0.142,-0.023 0.11,-0.046 0.086,-0.079C0.062,-0.111 0.05,-0.153 0.05,-0.204C0.05,-0.245 0.057,-0.284 0.071,-0.323C0.084,-0.362 0.104,-0.397 0.129,-0.428C0.154,-0.459 0.185,-0.484 0.22,-0.503C0.255,-0.521 0.295,-0.53 0.338,-0.53C0.368,-0.53 0.395,-0.524 0.42,-0.513C0.444,-0.502 0.463,-0.486 0.478,-0.465C0.493,-0.444 0.5,-0.42 0.5,-0.391C0.5,-0.36 0.494,-0.331 0.481,-0.304C0.468,-0.276 0.45,-0.251 0.428,-0.23C0.406,-0.209 0.381,-0.192 0.354,-0.18C0.326,-0.167 0.297,-0.161 0.267,-0.161C0.241,-0.161 0.217,-0.163 0.194,-0.168C0.171,-0.172 0.15,-0.179 0.131,-0.188C0.131,-0.163 0.137,-0.141 0.149,-0.124C0.161,-0.106 0.176,-0.092 0.195,-0.081C0.214,-0.07 0.233,-0.062 0.254,-0.057C0.274,-0.051 0.293,-0.049 0.31,-0.049C0.324,-0.049 0.338,-0.05 0.352,-0.052C0.366,-0.053 0.381,-0.054 0.398,-0.054C0.423,-0.054 0.435,-0.043 0.435,-0.022C0.435,-0.005 0.423,0.005 0.4,0.01C0.387,0.013 0.374,0.014 0.361,0.015C0.348,0.015 0.334,0.015 0.321,0.015ZM0.267,-0.241C0.29,-0.241 0.315,-0.246 0.34,-0.255C0.365,-0.264 0.387,-0.279 0.405,-0.299C0.422,-0.319 0.431,-0.344 0.431,-0.375C0.431,-0.402 0.423,-0.425 0.406,-0.442C0.389,-0.459 0.366,-0.467 0.338,-0.467C0.313,-0.467 0.288,-0.461 0.264,-0.45C0.239,-0.438 0.217,-0.422 0.197,-0.403C0.177,-0.383 0.161,-0.361 0.149,-0.336C0.137,-0.311 0.131,-0.286 0.131,-0.26C0.146,-0.252 0.166,-0.247 0.189,-0.245C0.212,-0.242 0.238,-0.241 0.267,-0.241Z" style="fill:rgb(21,21,21);fill-rule:nonzero;"/>
                    </g>
                    <g transform="matrix(252.364,0,0,252.364,714.959,794.193)">
                        <path d="M0.294,0.282C0.271,0.282 0.248,0.279 0.226,0.272C0.204,0.265 0.186,0.255 0.171,0.241C0.156,0.227 0.146,0.209 0.142,0.188C0.141,0.181 0.143,0.175 0.15,0.17C0.156,0.165 0.164,0.163 0.175,0.163C0.181,0.163 0.186,0.164 0.191,0.167C0.196,0.17 0.2,0.173 0.205,0.176C0.207,0.178 0.209,0.18 0.211,0.182C0.213,0.183 0.215,0.185 0.217,0.186C0.226,0.193 0.236,0.2 0.248,0.208C0.26,0.216 0.275,0.22 0.293,0.22C0.32,0.22 0.343,0.212 0.362,0.197C0.381,0.181 0.396,0.161 0.409,0.137C0.421,0.112 0.43,0.087 0.437,0.061C0.443,0.035 0.447,0.012 0.449,-0.008C0.452,-0.032 0.454,-0.059 0.456,-0.089C0.458,-0.119 0.459,-0.145 0.459,-0.168C0.459,-0.188 0.458,-0.202 0.456,-0.211C0.441,-0.191 0.426,-0.172 0.409,-0.154C0.392,-0.136 0.376,-0.12 0.362,-0.107C0.347,-0.094 0.337,-0.084 0.33,-0.078C0.318,-0.068 0.304,-0.058 0.288,-0.047C0.271,-0.036 0.254,-0.027 0.237,-0.02C0.219,-0.013 0.202,-0.009 0.185,-0.009C0.16,-0.009 0.137,-0.015 0.116,-0.027C0.095,-0.039 0.078,-0.055 0.065,-0.076C0.051,-0.097 0.045,-0.12 0.045,-0.145C0.045,-0.191 0.054,-0.237 0.073,-0.282C0.092,-0.327 0.118,-0.369 0.151,-0.407C0.184,-0.444 0.222,-0.474 0.266,-0.497C0.309,-0.519 0.356,-0.53 0.406,-0.53C0.427,-0.53 0.446,-0.525 0.463,-0.516C0.48,-0.507 0.488,-0.494 0.488,-0.478C0.488,-0.471 0.485,-0.464 0.48,-0.456C0.475,-0.448 0.468,-0.444 0.46,-0.444C0.457,-0.444 0.453,-0.445 0.449,-0.447C0.441,-0.452 0.432,-0.456 0.422,-0.459C0.412,-0.462 0.401,-0.463 0.39,-0.463C0.379,-0.463 0.367,-0.461 0.355,-0.457C0.322,-0.448 0.292,-0.434 0.264,-0.415C0.235,-0.395 0.21,-0.371 0.189,-0.344C0.167,-0.317 0.15,-0.287 0.138,-0.256C0.126,-0.225 0.12,-0.193 0.12,-0.161C0.12,-0.134 0.124,-0.113 0.132,-0.097C0.139,-0.08 0.155,-0.072 0.18,-0.072C0.196,-0.072 0.213,-0.077 0.23,-0.087C0.247,-0.097 0.263,-0.109 0.278,-0.123C0.293,-0.137 0.305,-0.15 0.314,-0.161C0.328,-0.177 0.343,-0.195 0.358,-0.214C0.373,-0.233 0.388,-0.252 0.402,-0.271C0.416,-0.289 0.428,-0.305 0.438,-0.319C0.447,-0.333 0.453,-0.342 0.456,-0.347C0.462,-0.354 0.467,-0.359 0.471,-0.361C0.475,-0.362 0.481,-0.363 0.488,-0.363C0.5,-0.363 0.509,-0.359 0.514,-0.352C0.519,-0.344 0.523,-0.335 0.525,-0.324C0.527,-0.313 0.529,-0.303 0.53,-0.294L0.53,-0.218C0.53,-0.191 0.529,-0.16 0.528,-0.125C0.527,-0.09 0.524,-0.053 0.52,-0.016C0.515,0.022 0.508,0.058 0.498,0.094C0.488,0.128 0.474,0.16 0.457,0.189C0.44,0.218 0.418,0.24 0.391,0.257C0.364,0.274 0.332,0.282 0.294,0.282Z" style="fill:rgb(21,21,21);fill-rule:nonzero;"/>
                    </g>
                    <g transform="matrix(252.364,0,0,252.364,862.34,794.193)">
                        <path d="M0.146,-0.01C0.139,-0.01 0.133,-0.012 0.127,-0.016C0.12,-0.02 0.116,-0.024 0.114,-0.029L0.114,-0.057C0.114,-0.071 0.116,-0.085 0.121,-0.099C0.125,-0.113 0.128,-0.127 0.131,-0.141C0.132,-0.146 0.133,-0.153 0.134,-0.16C0.135,-0.167 0.135,-0.178 0.135,-0.194L0.079,-0.194C0.074,-0.195 0.07,-0.195 0.065,-0.196C0.06,-0.197 0.056,-0.197 0.053,-0.198C0.048,-0.2 0.044,-0.203 0.041,-0.208C0.037,-0.212 0.035,-0.22 0.035,-0.231C0.035,-0.244 0.038,-0.253 0.045,-0.258C0.051,-0.263 0.061,-0.266 0.075,-0.269C0.082,-0.27 0.09,-0.272 0.099,-0.273C0.107,-0.274 0.115,-0.274 0.122,-0.275C0.13,-0.276 0.138,-0.278 0.147,-0.281C0.156,-0.284 0.164,-0.288 0.171,-0.294C0.174,-0.297 0.178,-0.3 0.183,-0.305C0.187,-0.31 0.189,-0.312 0.189,-0.312C0.19,-0.313 0.192,-0.316 0.193,-0.319L0.202,-0.34C0.203,-0.343 0.204,-0.347 0.205,-0.35C0.207,-0.355 0.209,-0.361 0.211,-0.366C0.212,-0.371 0.214,-0.374 0.216,-0.377C0.221,-0.386 0.228,-0.4 0.237,-0.419C0.246,-0.438 0.257,-0.458 0.268,-0.481C0.279,-0.503 0.289,-0.523 0.298,-0.541C0.307,-0.559 0.313,-0.571 0.317,-0.578C0.324,-0.589 0.331,-0.601 0.338,-0.612C0.345,-0.623 0.352,-0.634 0.361,-0.644C0.38,-0.667 0.396,-0.678 0.41,-0.678C0.423,-0.678 0.434,-0.675 0.443,-0.669C0.452,-0.662 0.461,-0.653 0.469,-0.642C0.477,-0.63 0.484,-0.618 0.49,-0.605C0.495,-0.592 0.501,-0.578 0.507,-0.565C0.542,-0.49 0.573,-0.411 0.6,-0.33C0.627,-0.249 0.648,-0.168 0.664,-0.087L0.664,-0.073C0.664,-0.062 0.661,-0.052 0.654,-0.044C0.647,-0.035 0.642,-0.031 0.637,-0.031C0.621,-0.031 0.609,-0.037 0.602,-0.048C0.594,-0.059 0.588,-0.076 0.583,-0.099C0.58,-0.11 0.578,-0.122 0.577,-0.133C0.575,-0.143 0.573,-0.154 0.571,-0.164C0.568,-0.173 0.564,-0.184 0.559,-0.195C0.553,-0.206 0.547,-0.214 0.542,-0.221L0.431,-0.221C0.42,-0.221 0.408,-0.221 0.395,-0.222C0.382,-0.222 0.368,-0.222 0.353,-0.222C0.338,-0.222 0.323,-0.221 0.308,-0.22C0.293,-0.218 0.278,-0.214 0.265,-0.209C0.248,-0.202 0.235,-0.192 0.226,-0.178C0.217,-0.164 0.21,-0.149 0.206,-0.132C0.201,-0.115 0.197,-0.098 0.194,-0.082C0.191,-0.064 0.187,-0.048 0.182,-0.033C0.177,-0.018 0.165,-0.01 0.146,-0.01ZM0.404,-0.294C0.441,-0.294 0.467,-0.294 0.482,-0.295C0.497,-0.296 0.506,-0.299 0.511,-0.305C0.513,-0.31 0.514,-0.316 0.514,-0.323C0.514,-0.332 0.513,-0.343 0.51,-0.355C0.507,-0.366 0.503,-0.377 0.499,-0.386C0.496,-0.393 0.492,-0.403 0.487,-0.417L0.45,-0.51C0.444,-0.525 0.439,-0.537 0.436,-0.546C0.435,-0.551 0.432,-0.556 0.428,-0.561C0.423,-0.566 0.418,-0.568 0.412,-0.568C0.407,-0.568 0.401,-0.565 0.396,-0.558C0.39,-0.55 0.382,-0.536 0.372,-0.517C0.361,-0.498 0.35,-0.476 0.338,-0.453C0.326,-0.43 0.315,-0.407 0.305,-0.386C0.295,-0.364 0.288,-0.347 0.283,-0.335C0.279,-0.326 0.277,-0.319 0.277,-0.314C0.277,-0.305 0.281,-0.3 0.288,-0.298C0.295,-0.295 0.302,-0.294 0.309,-0.294L0.404,-0.294Z" style="fill:rgb(21,21,21);fill-rule:nonzero;"/>
                    </g>
                    <g transform="matrix(252.364,0,0,252.364,1043.54,794.193)">
                        <path d="M0.112,-0.02C0.102,-0.02 0.095,-0.022 0.09,-0.027C0.085,-0.032 0.082,-0.038 0.08,-0.047C0.077,-0.058 0.075,-0.07 0.075,-0.083L0.075,-0.122C0.075,-0.143 0.076,-0.162 0.077,-0.178C0.078,-0.193 0.079,-0.21 0.079,-0.229C0.079,-0.236 0.079,-0.243 0.079,-0.251C0.078,-0.258 0.078,-0.266 0.077,-0.275C0.074,-0.308 0.071,-0.342 0.066,-0.378C0.061,-0.414 0.059,-0.447 0.059,-0.476L0.059,-0.515C0.063,-0.524 0.067,-0.53 0.071,-0.532C0.074,-0.534 0.079,-0.535 0.086,-0.535C0.102,-0.535 0.113,-0.529 0.12,-0.517C0.127,-0.504 0.131,-0.49 0.134,-0.474C0.136,-0.457 0.137,-0.443 0.138,-0.431C0.139,-0.426 0.14,-0.416 0.142,-0.401C0.143,-0.386 0.145,-0.369 0.147,-0.35C0.149,-0.331 0.151,-0.312 0.153,-0.295C0.154,-0.278 0.155,-0.264 0.155,-0.255C0.166,-0.277 0.178,-0.3 0.193,-0.324C0.208,-0.347 0.223,-0.369 0.238,-0.39C0.253,-0.411 0.266,-0.427 0.278,-0.44C0.295,-0.459 0.316,-0.474 0.34,-0.486C0.363,-0.497 0.387,-0.502 0.41,-0.502C0.437,-0.502 0.461,-0.494 0.482,-0.479C0.503,-0.464 0.521,-0.444 0.536,-0.419C0.551,-0.394 0.563,-0.368 0.573,-0.34C0.583,-0.311 0.591,-0.284 0.597,-0.257C0.606,-0.222 0.612,-0.191 0.617,-0.164C0.621,-0.137 0.625,-0.107 0.628,-0.073C0.628,-0.058 0.625,-0.047 0.619,-0.038C0.613,-0.029 0.606,-0.025 0.597,-0.025C0.584,-0.025 0.575,-0.028 0.57,-0.034C0.565,-0.039 0.561,-0.048 0.559,-0.061C0.554,-0.086 0.55,-0.115 0.546,-0.147C0.541,-0.179 0.535,-0.212 0.528,-0.245C0.521,-0.278 0.51,-0.308 0.496,-0.335C0.491,-0.348 0.484,-0.361 0.476,-0.374C0.468,-0.387 0.458,-0.399 0.447,-0.408C0.436,-0.417 0.422,-0.422 0.405,-0.422C0.383,-0.422 0.361,-0.412 0.339,-0.393C0.316,-0.374 0.295,-0.349 0.275,-0.318C0.255,-0.287 0.237,-0.255 0.22,-0.22C0.203,-0.185 0.189,-0.151 0.178,-0.12C0.175,-0.109 0.171,-0.098 0.166,-0.085C0.161,-0.072 0.155,-0.059 0.15,-0.048C0.145,-0.039 0.14,-0.032 0.135,-0.027C0.129,-0.022 0.121,-0.02 0.112,-0.02Z" style="fill:rgb(21,21,21);fill-rule:nonzero;"/>
                    </g>
                    <g transform="matrix(252.364,0,0,252.364,1213.63,794.193)">
                        <path d="M0.112,-0.02C0.102,-0.02 0.095,-0.022 0.09,-0.027C0.085,-0.032 0.082,-0.038 0.08,-0.047C0.077,-0.058 0.075,-0.07 0.075,-0.083L0.075,-0.122C0.075,-0.143 0.076,-0.162 0.077,-0.178C0.078,-0.193 0.079,-0.21 0.079,-0.229C0.079,-0.236 0.079,-0.243 0.079,-0.251C0.078,-0.258 0.078,-0.266 0.077,-0.275C0.074,-0.308 0.071,-0.342 0.066,-0.378C0.061,-0.414 0.059,-0.447 0.059,-0.476L0.059,-0.515C0.063,-0.524 0.067,-0.53 0.071,-0.532C0.074,-0.534 0.079,-0.535 0.086,-0.535C0.102,-0.535 0.113,-0.529 0.12,-0.517C0.127,-0.504 0.131,-0.49 0.134,-0.474C0.136,-0.457 0.137,-0.443 0.138,-0.431C0.139,-0.426 0.14,-0.416 0.142,-0.401C0.143,-0.386 0.145,-0.369 0.147,-0.35C0.149,-0.331 0.151,-0.312 0.153,-0.295C0.154,-0.278 0.155,-0.264 0.155,-0.255C0.166,-0.277 0.178,-0.3 0.193,-0.324C0.208,-0.347 0.223,-0.369 0.238,-0.39C0.253,-0.411 0.266,-0.427 0.278,-0.44C0.295,-0.459 0.316,-0.474 0.34,-0.486C0.363,-0.497 0.387,-0.502 0.41,-0.502C0.437,-0.502 0.461,-0.494 0.482,-0.479C0.503,-0.464 0.521,-0.444 0.536,-0.419C0.551,-0.394 0.563,-0.368 0.573,-0.34C0.583,-0.311 0.591,-0.284 0.597,-0.257C0.606,-0.222 0.612,-0.191 0.617,-0.164C0.621,-0.137 0.625,-0.107 0.628,-0.073C0.628,-0.058 0.625,-0.047 0.619,-0.038C0.613,-0.029 0.606,-0.025 0.597,-0.025C0.584,-0.025 0.575,-0.028 0.57,-0.034C0.565,-0.039 0.561,-0.048 0.559,-0.061C0.554,-0.086 0.55,-0.115 0.546,-0.147C0.541,-0.179 0.535,-0.212 0.528,-0.245C0.521,-0.278 0.51,-0.308 0.496,-0.335C0.491,-0.348 0.484,-0.361 0.476,-0.374C0.468,-0.387 0.458,-0.399 0.447,-0.408C0.436,-0.417 0.422,-0.422 0.405,-0.422C0.383,-0.422 0.361,-0.412 0.339,-0.393C0.316,-0.374 0.295,-0.349 0.275,-0.318C0.255,-0.287 0.237,-0.255 0.22,-0.22C0.203,-0.185 0.189,-0.151 0.178,-0.12C0.175,-0.109 0.171,-0.098 0.166,-0.085C0.161,-0.072 0.155,-0.059 0.15,-0.048C0.145,-0.039 0.14,-0.032 0.135,-0.027C0.129,-0.022 0.121,-0.02 0.112,-0.02Z" style="fill:rgb(21,21,21);fill-rule:nonzero;"/>
                    </g>
                    <g transform="matrix(252.364,0,0,252.364,1383.72,794.193)">
                        <path d="M0.321,0.015C0.27,0.015 0.225,0.008 0.184,-0.008C0.142,-0.023 0.11,-0.046 0.086,-0.079C0.062,-0.111 0.05,-0.153 0.05,-0.204C0.05,-0.245 0.057,-0.284 0.071,-0.323C0.084,-0.362 0.104,-0.397 0.129,-0.428C0.154,-0.459 0.185,-0.484 0.22,-0.503C0.255,-0.521 0.295,-0.53 0.338,-0.53C0.368,-0.53 0.395,-0.524 0.42,-0.513C0.444,-0.502 0.463,-0.486 0.478,-0.465C0.493,-0.444 0.5,-0.42 0.5,-0.391C0.5,-0.36 0.494,-0.331 0.481,-0.304C0.468,-0.276 0.45,-0.251 0.428,-0.23C0.406,-0.209 0.381,-0.192 0.354,-0.18C0.326,-0.167 0.297,-0.161 0.267,-0.161C0.241,-0.161 0.217,-0.163 0.194,-0.168C0.171,-0.172 0.15,-0.179 0.131,-0.188C0.131,-0.163 0.137,-0.141 0.149,-0.124C0.161,-0.106 0.176,-0.092 0.195,-0.081C0.214,-0.07 0.233,-0.062 0.254,-0.057C0.274,-0.051 0.293,-0.049 0.31,-0.049C0.324,-0.049 0.338,-0.05 0.352,-0.052C0.366,-0.053 0.381,-0.054 0.398,-0.054C0.423,-0.054 0.435,-0.043 0.435,-0.022C0.435,-0.005 0.423,0.005 0.4,0.01C0.387,0.013 0.374,0.014 0.361,0.015C0.348,0.015 0.334,0.015 0.321,0.015ZM0.267,-0.241C0.29,-0.241 0.315,-0.246 0.34,-0.255C0.365,-0.264 0.387,-0.279 0.405,-0.299C0.422,-0.319 0.431,-0.344 0.431,-0.375C0.431,-0.402 0.423,-0.425 0.406,-0.442C0.389,-0.459 0.366,-0.467 0.338,-0.467C0.313,-0.467 0.288,-0.461 0.264,-0.45C0.239,-0.438 0.217,-0.422 0.197,-0.403C0.177,-0.383 0.161,-0.361 0.149,-0.336C0.137,-0.311 0.131,-0.286 0.131,-0.26C0.146,-0.252 0.166,-0.247 0.189,-0.245C0.212,-0.242 0.238,-0.241 0.267,-0.241Z" style="fill:rgb(21,21,21);fill-rule:nonzero;"/>
                    </g>
                </g>
                <g transform="matrix(0.432307,0,0,0.432307,1454.68,2143.09)">
                    <g transform="matrix(252.364,0,0,252.364,0,0)">
                        <path d="M0.141,-0C0.13,-0 0.122,-0.003 0.118,-0.008C0.114,-0.012 0.11,-0.021 0.105,-0.032C0.104,-0.035 0.103,-0.037 0.103,-0.038C0.102,-0.047 0.102,-0.057 0.102,-0.067L0.102,-0.096C0.102,-0.157 0.105,-0.218 0.112,-0.279C0.119,-0.34 0.122,-0.4 0.122,-0.461C0.122,-0.478 0.122,-0.496 0.122,-0.513C0.121,-0.53 0.119,-0.546 0.116,-0.563L0.114,-0.573L0.104,-0.576C0.089,-0.581 0.077,-0.586 0.068,-0.592C0.058,-0.598 0.053,-0.607 0.053,-0.619C0.053,-0.626 0.061,-0.635 0.076,-0.644C0.091,-0.653 0.111,-0.661 0.138,-0.667C0.163,-0.672 0.189,-0.676 0.216,-0.677C0.243,-0.678 0.263,-0.678 0.278,-0.678C0.313,-0.678 0.349,-0.675 0.386,-0.669C0.423,-0.663 0.457,-0.653 0.489,-0.64C0.521,-0.626 0.548,-0.608 0.571,-0.585C0.593,-0.562 0.607,-0.533 0.613,-0.498C0.615,-0.489 0.616,-0.48 0.616,-0.469C0.616,-0.434 0.607,-0.406 0.59,-0.385C0.572,-0.363 0.549,-0.345 0.521,-0.331C0.492,-0.316 0.461,-0.303 0.428,-0.29L0.401,-0.28L0.428,-0.256C0.435,-0.249 0.443,-0.243 0.452,-0.236C0.46,-0.229 0.468,-0.221 0.475,-0.213L0.52,-0.164C0.533,-0.149 0.546,-0.133 0.559,-0.116C0.572,-0.098 0.578,-0.081 0.578,-0.064C0.578,-0.035 0.564,-0.021 0.535,-0.021C0.526,-0.021 0.52,-0.022 0.518,-0.024C0.518,-0.024 0.518,-0.024 0.518,-0.025C0.517,-0.025 0.517,-0.025 0.516,-0.025C0.515,-0.026 0.514,-0.028 0.511,-0.031C0.509,-0.033 0.507,-0.035 0.504,-0.038C0.501,-0.041 0.499,-0.044 0.497,-0.047C0.482,-0.074 0.465,-0.098 0.446,-0.12C0.427,-0.14 0.402,-0.164 0.371,-0.191C0.362,-0.199 0.351,-0.208 0.336,-0.217C0.321,-0.226 0.307,-0.236 0.293,-0.247C0.278,-0.258 0.267,-0.269 0.259,-0.279C0.251,-0.289 0.247,-0.298 0.247,-0.305C0.247,-0.31 0.25,-0.312 0.255,-0.311C0.26,-0.31 0.269,-0.313 0.282,-0.318C0.295,-0.323 0.309,-0.328 0.325,-0.333C0.341,-0.337 0.357,-0.341 0.374,-0.346C0.391,-0.351 0.408,-0.357 0.425,-0.363C0.442,-0.368 0.457,-0.375 0.471,-0.384C0.485,-0.393 0.5,-0.406 0.516,-0.422C0.531,-0.437 0.539,-0.454 0.539,-0.473C0.539,-0.494 0.533,-0.512 0.521,-0.527C0.508,-0.542 0.493,-0.555 0.476,-0.566C0.458,-0.576 0.441,-0.583 0.425,-0.587C0.406,-0.592 0.383,-0.596 0.357,-0.598C0.33,-0.6 0.306,-0.601 0.285,-0.601L0.222,-0.601C0.214,-0.601 0.21,-0.597 0.21,-0.588L0.183,-0.107C0.182,-0.102 0.182,-0.097 0.183,-0.091C0.183,-0.084 0.183,-0.078 0.182,-0.071C0.181,-0.058 0.179,-0.046 0.176,-0.034C0.17,-0.011 0.158,-0 0.141,-0Z" style="fill:rgb(21,21,21);fill-rule:nonzero;"/>
                    </g>
                    <g transform="matrix(252.364,0,0,252.364,167.317,0)">
                        <path d="M0.321,0.015C0.27,0.015 0.225,0.008 0.184,-0.008C0.142,-0.023 0.11,-0.046 0.086,-0.079C0.062,-0.111 0.05,-0.153 0.05,-0.204C0.05,-0.245 0.057,-0.284 0.071,-0.323C0.084,-0.362 0.104,-0.397 0.129,-0.428C0.154,-0.459 0.185,-0.484 0.22,-0.503C0.255,-0.521 0.295,-0.53 0.338,-0.53C0.368,-0.53 0.395,-0.524 0.42,-0.513C0.444,-0.502 0.463,-0.486 0.478,-0.465C0.493,-0.444 0.5,-0.42 0.5,-0.391C0.5,-0.36 0.494,-0.331 0.481,-0.304C0.468,-0.276 0.45,-0.251 0.428,-0.23C0.406,-0.209 0.381,-0.192 0.354,-0.18C0.326,-0.167 0.297,-0.161 0.267,-0.161C0.241,-0.161 0.217,-0.163 0.194,-0.168C0.171,-0.172 0.15,-0.179 0.131,-0.188C0.131,-0.163 0.137,-0.141 0.149,-0.124C0.161,-0.106 0.176,-0.092 0.195,-0.081C0.214,-0.07 0.233,-0.062 0.254,-0.057C0.274,-0.051 0.293,-0.049 0.31,-0.049C0.324,-0.049 0.338,-0.05 0.352,-0.052C0.366,-0.053 0.381,-0.054 0.398,-0.054C0.423,-0.054 0.435,-0.043 0.435,-0.022C0.435,-0.005 0.423,0.005 0.4,0.01C0.387,0.013 0.374,0.014 0.361,0.015C0.348,0.015 0.334,0.015 0.321,0.015ZM0.267,-0.241C0.29,-0.241 0.315,-0.246 0.34,-0.255C0.365,-0.264 0.387,-0.279 0.405,-0.299C0.422,-0.319 0.431,-0.344 0.431,-0.375C0.431,-0.402 0.423,-0.425 0.406,-0.442C0.389,-0.459 0.366,-0.467 0.338,-0.467C0.313,-0.467 0.288,-0.461 0.264,-0.45C0.239,-0.438 0.217,-0.422 0.197,-0.403C0.177,-0.383 0.161,-0.361 0.149,-0.336C0.137,-0.311 0.131,-0.286 0.131,-0.26C0.146,-0.252 0.166,-0.247 0.189,-0.245C0.212,-0.242 0.238,-0.241 0.267,-0.241Z" style="fill:rgb(21,21,21);fill-rule:nonzero;"/>
                    </g>
                    <g transform="matrix(252.364,0,0,252.364,307.127,0)">
                        <path d="M0.27,-0.015C0.223,-0.015 0.184,-0.026 0.152,-0.049C0.12,-0.072 0.096,-0.102 0.079,-0.141C0.062,-0.179 0.054,-0.221 0.054,-0.266C0.054,-0.317 0.065,-0.363 0.088,-0.405C0.111,-0.447 0.142,-0.481 0.182,-0.507C0.222,-0.532 0.267,-0.545 0.318,-0.545C0.332,-0.545 0.348,-0.544 0.367,-0.542C0.386,-0.54 0.404,-0.536 0.421,-0.53C0.438,-0.524 0.453,-0.515 0.464,-0.504C0.475,-0.493 0.481,-0.478 0.481,-0.459C0.481,-0.452 0.478,-0.445 0.472,-0.44C0.466,-0.435 0.456,-0.432 0.443,-0.432C0.432,-0.432 0.423,-0.435 0.414,-0.44C0.405,-0.445 0.396,-0.451 0.388,-0.456C0.376,-0.464 0.364,-0.471 0.351,-0.478C0.338,-0.484 0.323,-0.487 0.308,-0.487C0.279,-0.487 0.253,-0.48 0.231,-0.465C0.209,-0.45 0.191,-0.43 0.176,-0.407C0.161,-0.383 0.15,-0.358 0.143,-0.332C0.136,-0.305 0.132,-0.281 0.132,-0.259C0.132,-0.216 0.14,-0.181 0.158,-0.156C0.174,-0.13 0.197,-0.112 0.226,-0.101C0.254,-0.09 0.285,-0.084 0.318,-0.084C0.35,-0.084 0.379,-0.09 0.406,-0.101C0.432,-0.112 0.459,-0.124 0.486,-0.137C0.495,-0.142 0.503,-0.144 0.509,-0.144C0.517,-0.144 0.522,-0.141 0.525,-0.135C0.528,-0.128 0.529,-0.12 0.529,-0.111C0.529,-0.094 0.522,-0.079 0.508,-0.068C0.494,-0.056 0.476,-0.047 0.455,-0.04C0.434,-0.033 0.411,-0.027 0.387,-0.024C0.362,-0.02 0.34,-0.018 0.319,-0.017C0.298,-0.016 0.282,-0.015 0.27,-0.015Z" style="fill:rgb(21,21,21);fill-rule:nonzero;"/>
                    </g>
                    <g transform="matrix(252.364,0,0,252.364,453.246,0)">
                        <path d="M0.321,0.015C0.27,0.015 0.225,0.008 0.184,-0.008C0.142,-0.023 0.11,-0.046 0.086,-0.079C0.062,-0.111 0.05,-0.153 0.05,-0.204C0.05,-0.245 0.057,-0.284 0.071,-0.323C0.084,-0.362 0.104,-0.397 0.129,-0.428C0.154,-0.459 0.185,-0.484 0.22,-0.503C0.255,-0.521 0.295,-0.53 0.338,-0.53C0.368,-0.53 0.395,-0.524 0.42,-0.513C0.444,-0.502 0.463,-0.486 0.478,-0.465C0.493,-0.444 0.5,-0.42 0.5,-0.391C0.5,-0.36 0.494,-0.331 0.481,-0.304C0.468,-0.276 0.45,-0.251 0.428,-0.23C0.406,-0.209 0.381,-0.192 0.354,-0.18C0.326,-0.167 0.297,-0.161 0.267,-0.161C0.241,-0.161 0.217,-0.163 0.194,-0.168C0.171,-0.172 0.15,-0.179 0.131,-0.188C0.131,-0.163 0.137,-0.141 0.149,-0.124C0.161,-0.106 0.176,-0.092 0.195,-0.081C0.214,-0.07 0.233,-0.062 0.254,-0.057C0.274,-0.051 0.293,-0.049 0.31,-0.049C0.324,-0.049 0.338,-0.05 0.352,-0.052C0.366,-0.053 0.381,-0.054 0.398,-0.054C0.423,-0.054 0.435,-0.043 0.435,-0.022C0.435,-0.005 0.423,0.005 0.4,0.01C0.387,0.013 0.374,0.014 0.361,0.015C0.348,0.015 0.334,0.015 0.321,0.015ZM0.267,-0.241C0.29,-0.241 0.315,-0.246 0.34,-0.255C0.365,-0.264 0.387,-0.279 0.405,-0.299C0.422,-0.319 0.431,-0.344 0.431,-0.375C0.431,-0.402 0.423,-0.425 0.406,-0.442C0.389,-0.459 0.366,-0.467 0.338,-0.467C0.313,-0.467 0.288,-0.461 0.264,-0.45C0.239,-0.438 0.217,-0.422 0.197,-0.403C0.177,-0.383 0.161,-0.361 0.149,-0.336C0.137,-0.311 0.131,-0.286 0.131,-0.26C0.146,-0.252 0.166,-0.247 0.189,-0.245C0.212,-0.242 0.238,-0.241 0.267,-0.241Z" style="fill:rgb(21,21,21);fill-rule:nonzero;"/>
                    </g>
                    <g transform="matrix(252.364,0,0,252.364,593.055,0)">
                        <path d="M0.221,0.02C0.204,0.02 0.192,0.015 0.184,0.004C0.176,-0.007 0.171,-0.02 0.169,-0.036C0.166,-0.052 0.165,-0.068 0.165,-0.083L0.166,-0.121C0.166,-0.169 0.167,-0.218 0.169,-0.267C0.171,-0.316 0.172,-0.369 0.172,-0.427C0.147,-0.427 0.127,-0.426 0.111,-0.424C0.095,-0.422 0.079,-0.421 0.063,-0.421C0.052,-0.421 0.045,-0.423 0.041,-0.427C0.037,-0.431 0.035,-0.438 0.035,-0.447C0.035,-0.458 0.037,-0.466 0.04,-0.471C0.043,-0.476 0.046,-0.479 0.051,-0.48L0.149,-0.5C0.164,-0.503 0.174,-0.51 0.181,-0.52C0.187,-0.53 0.191,-0.54 0.194,-0.549C0.195,-0.554 0.196,-0.56 0.197,-0.565C0.197,-0.57 0.197,-0.575 0.198,-0.581L0.199,-0.611C0.2,-0.632 0.204,-0.648 0.21,-0.658C0.215,-0.668 0.226,-0.673 0.243,-0.673C0.258,-0.673 0.268,-0.667 0.271,-0.655C0.274,-0.643 0.275,-0.632 0.275,-0.621C0.275,-0.614 0.275,-0.603 0.274,-0.588C0.273,-0.573 0.272,-0.558 0.271,-0.543C0.27,-0.528 0.27,-0.518 0.269,-0.511L0.429,-0.511C0.435,-0.511 0.441,-0.507 0.447,-0.499C0.453,-0.491 0.456,-0.481 0.456,-0.468C0.456,-0.464 0.454,-0.459 0.451,-0.453C0.448,-0.446 0.444,-0.443 0.439,-0.443C0.432,-0.443 0.42,-0.443 0.402,-0.443C0.383,-0.442 0.364,-0.442 0.343,-0.441C0.322,-0.44 0.303,-0.44 0.287,-0.439C0.271,-0.438 0.262,-0.437 0.26,-0.436C0.257,-0.396 0.254,-0.358 0.253,-0.321C0.251,-0.284 0.25,-0.248 0.25,-0.213C0.25,-0.19 0.251,-0.168 0.252,-0.148C0.253,-0.127 0.253,-0.106 0.254,-0.085C0.254,-0.082 0.254,-0.077 0.255,-0.07C0.256,-0.063 0.256,-0.056 0.256,-0.048C0.256,-0.033 0.254,-0.018 0.25,-0.003C0.245,0.012 0.236,0.02 0.221,0.02Z" style="fill:rgb(21,21,21);fill-rule:nonzero;"/>
                    </g>
                    <g transform="matrix(252.364,0,0,252.364,715.452,0)">
                        <path d="M0.221,0.02C0.204,0.02 0.192,0.015 0.184,0.004C0.176,-0.007 0.171,-0.02 0.169,-0.036C0.166,-0.052 0.165,-0.068 0.165,-0.083L0.166,-0.121C0.166,-0.169 0.167,-0.218 0.169,-0.267C0.171,-0.316 0.172,-0.369 0.172,-0.427C0.147,-0.427 0.127,-0.426 0.111,-0.424C0.095,-0.422 0.079,-0.421 0.063,-0.421C0.052,-0.421 0.045,-0.423 0.041,-0.427C0.037,-0.431 0.035,-0.438 0.035,-0.447C0.035,-0.458 0.037,-0.466 0.04,-0.471C0.043,-0.476 0.046,-0.479 0.051,-0.48L0.149,-0.5C0.164,-0.503 0.174,-0.51 0.181,-0.52C0.187,-0.53 0.191,-0.54 0.194,-0.549C0.195,-0.554 0.196,-0.56 0.197,-0.565C0.197,-0.57 0.197,-0.575 0.198,-0.581L0.199,-0.611C0.2,-0.632 0.204,-0.648 0.21,-0.658C0.215,-0.668 0.226,-0.673 0.243,-0.673C0.258,-0.673 0.268,-0.667 0.271,-0.655C0.274,-0.643 0.275,-0.632 0.275,-0.621C0.275,-0.614 0.275,-0.603 0.274,-0.588C0.273,-0.573 0.272,-0.558 0.271,-0.543C0.27,-0.528 0.27,-0.518 0.269,-0.511L0.429,-0.511C0.435,-0.511 0.441,-0.507 0.447,-0.499C0.453,-0.491 0.456,-0.481 0.456,-0.468C0.456,-0.464 0.454,-0.459 0.451,-0.453C0.448,-0.446 0.444,-0.443 0.439,-0.443C0.432,-0.443 0.42,-0.443 0.402,-0.443C0.383,-0.442 0.364,-0.442 0.343,-0.441C0.322,-0.44 0.303,-0.44 0.287,-0.439C0.271,-0.438 0.262,-0.437 0.26,-0.436C0.257,-0.396 0.254,-0.358 0.253,-0.321C0.251,-0.284 0.25,-0.248 0.25,-0.213C0.25,-0.19 0.251,-0.168 0.252,-0.148C0.253,-0.127 0.253,-0.106 0.254,-0.085C0.254,-0.082 0.254,-0.077 0.255,-0.07C0.256,-0.063 0.256,-0.056 0.256,-0.048C0.256,-0.033 0.254,-0.018 0.25,-0.003C0.245,0.012 0.236,0.02 0.221,0.02Z" style="fill:rgb(21,21,21);fill-rule:nonzero;"/>
                    </g>
                    <g transform="matrix(252.364,0,0,252.364,837.849,0)">
                        <path d="M0.321,0.015C0.27,0.015 0.225,0.008 0.184,-0.008C0.142,-0.023 0.11,-0.046 0.086,-0.079C0.062,-0.111 0.05,-0.153 0.05,-0.204C0.05,-0.245 0.057,-0.284 0.071,-0.323C0.084,-0.362 0.104,-0.397 0.129,-0.428C0.154,-0.459 0.185,-0.484 0.22,-0.503C0.255,-0.521 0.295,-0.53 0.338,-0.53C0.368,-0.53 0.395,-0.524 0.42,-0.513C0.444,-0.502 0.463,-0.486 0.478,-0.465C0.493,-0.444 0.5,-0.42 0.5,-0.391C0.5,-0.36 0.494,-0.331 0.481,-0.304C0.468,-0.276 0.45,-0.251 0.428,-0.23C0.406,-0.209 0.381,-0.192 0.354,-0.18C0.326,-0.167 0.297,-0.161 0.267,-0.161C0.241,-0.161 0.217,-0.163 0.194,-0.168C0.171,-0.172 0.15,-0.179 0.131,-0.188C0.131,-0.163 0.137,-0.141 0.149,-0.124C0.161,-0.106 0.176,-0.092 0.195,-0.081C0.214,-0.07 0.233,-0.062 0.254,-0.057C0.274,-0.051 0.293,-0.049 0.31,-0.049C0.324,-0.049 0.338,-0.05 0.352,-0.052C0.366,-0.053 0.381,-0.054 0.398,-0.054C0.423,-0.054 0.435,-0.043 0.435,-0.022C0.435,-0.005 0.423,0.005 0.4,0.01C0.387,0.013 0.374,0.014 0.361,0.015C0.348,0.015 0.334,0.015 0.321,0.015ZM0.267,-0.241C0.29,-0.241 0.315,-0.246 0.34,-0.255C0.365,-0.264 0.387,-0.279 0.405,-0.299C0.422,-0.319 0.431,-0.344 0.431,-0.375C0.431,-0.402 0.423,-0.425 0.406,-0.442C0.389,-0.459 0.366,-0.467 0.338,-0.467C0.313,-0.467 0.288,-0.461 0.264,-0.45C0.239,-0.438 0.217,-0.422 0.197,-0.403C0.177,-0.383 0.161,-0.361 0.149,-0.336C0.137,-0.311 0.131,-0.286 0.131,-0.26C0.146,-0.252 0.166,-0.247 0.189,-0.245C0.212,-0.242 0.238,-0.241 0.267,-0.241Z" style="fill:rgb(21,21,21);fill-rule:nonzero;"/>
                    </g>
                    <g transform="matrix(252.364,0,0,252.364,977.658,0)">
                        <path d="M0.249,0.015C0.231,0.015 0.21,0.014 0.186,0.012C0.162,0.01 0.138,0.006 0.116,-0.001C0.093,-0.008 0.074,-0.018 0.059,-0.033C0.044,-0.048 0.036,-0.067 0.036,-0.092C0.036,-0.124 0.049,-0.14 0.074,-0.14C0.083,-0.14 0.089,-0.137 0.094,-0.131L0.103,-0.119C0.105,-0.116 0.107,-0.114 0.109,-0.111C0.11,-0.108 0.112,-0.104 0.115,-0.101C0.124,-0.087 0.138,-0.074 0.155,-0.062C0.172,-0.05 0.198,-0.044 0.233,-0.044C0.253,-0.044 0.275,-0.047 0.299,-0.054C0.323,-0.06 0.343,-0.07 0.361,-0.084C0.378,-0.098 0.386,-0.117 0.386,-0.14C0.386,-0.159 0.38,-0.175 0.368,-0.186C0.356,-0.197 0.343,-0.206 0.328,-0.213C0.321,-0.216 0.314,-0.22 0.306,-0.223C0.297,-0.226 0.288,-0.229 0.279,-0.232C0.27,-0.235 0.262,-0.237 0.253,-0.24C0.244,-0.243 0.235,-0.245 0.226,-0.248C0.202,-0.256 0.18,-0.265 0.161,-0.276C0.141,-0.286 0.125,-0.299 0.114,-0.315C0.102,-0.331 0.096,-0.351 0.096,-0.376C0.096,-0.407 0.106,-0.432 0.127,-0.453C0.147,-0.474 0.173,-0.489 0.204,-0.5C0.235,-0.51 0.266,-0.515 0.298,-0.515C0.31,-0.515 0.324,-0.514 0.34,-0.512C0.356,-0.51 0.372,-0.506 0.387,-0.501C0.402,-0.496 0.415,-0.488 0.426,-0.479C0.436,-0.469 0.441,-0.456 0.441,-0.44C0.441,-0.432 0.44,-0.425 0.437,-0.42C0.434,-0.414 0.429,-0.411 0.423,-0.411C0.419,-0.411 0.416,-0.412 0.413,-0.413C0.384,-0.426 0.359,-0.436 0.34,-0.442C0.32,-0.448 0.303,-0.451 0.288,-0.451C0.279,-0.451 0.268,-0.45 0.255,-0.448C0.241,-0.445 0.227,-0.442 0.214,-0.437C0.201,-0.432 0.19,-0.425 0.181,-0.416C0.171,-0.407 0.167,-0.395 0.167,-0.381C0.167,-0.356 0.186,-0.335 0.225,-0.318C0.239,-0.313 0.255,-0.307 0.272,-0.302C0.289,-0.297 0.307,-0.29 0.326,-0.283C0.35,-0.274 0.372,-0.264 0.392,-0.252C0.412,-0.24 0.428,-0.226 0.44,-0.209C0.451,-0.192 0.457,-0.17 0.457,-0.145C0.457,-0.107 0.447,-0.076 0.428,-0.053C0.409,-0.029 0.383,-0.012 0.352,-0.001C0.321,0.01 0.286,0.015 0.249,0.015Z" style="fill:rgb(21,21,21);fill-rule:nonzero;"/>
                    </g>
                </g>
                <g transform="matrix(0.0868433,0,0,0.0868433,1065.61,2152.91)">
                    <path d="M600.22,0C600.22,0 534.4,63.859 463.214,89.605C-63.937,280.277 158.385,651.845 165.638,653.07C165.638,653.07 195.198,601.593 235.129,572.231C488.516,385.955 540.016,171.541 540.016,171.541C540.016,171.541 483.156,429.549 257.731,590.089C207.942,625.528 174.23,712.786 159.959,800C159.959,800 195.252,785.741 210.428,781.879C216.346,743.259 228.719,706.279 249.638,673.244C564.697,710.755 667.885,456.885 681.365,368.363C713.181,159.292 600.22,0 600.22,0Z" style="fill:rgb(21,21,21);fill-rule:nonzero;"/>
                </g>
            </g>
        </g>
    </g>
</svg>
